<?xml version="1.0" encoding="UTF-8"?>
<svg version="1.1" xmlns="http://www.w3.org/2000/svg" width="1024" height="1024">
<path d="M0 0 C337.92 0 675.84 0 1024 0 C1024 337.92 1024 675.84 1024 1024 C686.08 1024 348.16 1024 0 1024 C0 686.08 0 348.16 0 0 Z " fill="#FCFCFC" transform="translate(0,0)"/>
<path d="M0 0 C2.13032887 1.18665118 4.22717786 2.42051853 6.32275391 3.66748047 C34.05392074 19.54806234 67.04003778 28.58332356 98.95996094 30.34814453 C101.90590544 30.56053176 103.85307457 30.91073662 106.30628967 32.59945679 C108.92052558 36.18073512 108.68684027 39.54423839 108.63696289 43.81054688 C108.64506737 45.12867622 108.64506737 45.12867622 108.65333557 46.47343445 C108.66585899 49.38481172 108.64928904 52.29520568 108.63134766 55.20654297 C108.63150275 57.2427882 108.63299352 59.27903373 108.63575745 61.3152771 C108.63714371 65.59426858 108.62456042 69.87292588 108.60180664 74.15185547 C108.57367345 79.58700599 108.57608726 85.0215907 108.58889675 90.45678139 C108.59592531 94.67124082 108.58797964 98.88557423 108.57563972 103.10001755 C108.57117654 105.10029997 108.57074258 107.1005962 108.57470512 109.10087967 C108.61397636 146.42867415 97.08584535 176.23306625 71.13525391 203.10498047 C70.40822266 203.88357422 69.68119141 204.66216797 68.93212891 205.46435547 C52.61881377 222.50270684 31.85086867 234.29894998 11.13525391 245.10498047 C10.43996582 245.47236328 9.74467773 245.83974609 9.02832031 246.21826172 C2.2828471 249.74833996 -3.17549759 252.31029408 -10.86474609 251.10498047 C-14.95959382 249.71643649 -18.75811665 247.86275896 -22.61474609 245.91748047 C-23.70440674 245.37937744 -24.79406738 244.84127441 -25.91674805 244.28686523 C-46.19409086 234.08406701 -64.35543296 221.68342022 -80.86474609 206.10498047 C-81.67298828 205.36119141 -82.48123047 204.61740234 -83.31396484 203.85107422 C-99.16696064 188.74468733 -110.96364484 169.1775175 -116.86474609 148.10498047 C-117.11863602 147.21994843 -117.37252594 146.33491638 -117.6341095 145.42306519 C-120.52739811 133.90534094 -120.28237361 122.51901255 -120.22802734 110.71435547 C-120.22750783 108.4747111 -120.22802906 106.23506628 -120.22953796 103.99542236 C-120.2294488 99.33248981 -120.21912471 94.66973218 -120.20092773 90.00683594 C-120.17808378 84.02120642 -120.17773088 78.03582836 -120.18444538 72.05016708 C-120.18777745 67.44008126 -120.18117232 62.83005322 -120.17131615 58.21997833 C-120.16746252 56.01109366 -120.1663166 53.80220258 -120.16790199 51.59331512 C-120.16827104 48.52253292 -120.15570305 45.45208049 -120.1394043 42.38134766 C-120.14188171 41.46610825 -120.14435913 40.55086884 -120.14691162 39.6078949 C-120.09350698 33.33374135 -120.09350698 33.33374135 -117.86474609 31.10498047 C-115.20458984 30.60595703 -115.20458984 30.60595703 -111.80224609 30.24560547 C-110.54331543 30.10276123 -109.28438477 29.95991699 -107.98730469 29.81274414 C-106.97975128 29.70184952 -106.97975128 29.70184952 -105.95184326 29.5887146 C-73.11679921 25.91151614 -38.53161385 18.04844633 -10.86474609 -0.89501953 C-6.8100876 -2.24657236 -3.88630488 -1.86530423 0 0 Z " fill="#33C282" transform="translate(219.86474609375,389.89501953125)"/>
<path d="M0 0 C0.87454834 0.00523682 1.74909668 0.01047363 2.65014648 0.01586914 C3.59438477 0.0190918 4.53862305 0.02231445 5.51147461 0.02563477 C6.50469727 0.03401367 7.49791992 0.04239258 8.52124023 0.05102539 C9.51833008 0.05553711 10.51541992 0.06004883 11.54272461 0.06469727 C14.01478872 0.07652532 16.48673541 0.0930069 18.95874023 0.11352539 C27.38362665 21.07742588 35.67550297 42.09335837 43.95874023 63.11352539 C47.14536055 56.11204369 50.0398668 49.01622624 52.87631226 41.86633301 C54.191255 38.55252511 55.5125044 35.24123445 56.83374023 31.92993164 C57.09744919 31.26879364 57.36115814 30.60765564 57.63285828 29.92648315 C60.1081499 23.72690963 62.61806071 17.54172169 65.14624023 11.36352539 C65.70734497 9.99031128 65.70734497 9.99031128 66.27978516 8.58935547 C68.82772852 2.37554882 68.82772852 2.37554882 69.95874023 0.11352539 C73.43788964 0.08464725 76.91700854 0.06676852 80.39624023 0.05102539 C81.88607422 0.03845703 81.88607422 0.03845703 83.40600586 0.02563477 C84.35024414 0.02241211 85.29448242 0.01918945 86.26733398 0.01586914 C87.57915649 0.00801392 87.57915649 0.00801392 88.91748047 0 C90.95874023 0.11352539 90.95874023 0.11352539 91.95874023 1.11352539 C92.81806004 6.10581521 93.22568881 11.10252326 93.53125 16.15332031 C93.58016388 16.9251062 93.62907776 17.69689209 93.67947388 18.49206543 C93.83924243 21.02587091 93.9948731 23.55990951 94.15014648 26.09399414 C94.26067883 27.87129063 94.3713532 29.6485783 94.48216248 31.42585754 C94.71347111 35.14690931 94.94265438 38.86808461 95.17041016 42.58935547 C95.46071949 47.32897969 95.75690457 52.06821527 96.05479527 56.80736828 C96.28477061 60.47835873 96.51125747 64.14955844 96.73676872 67.82082558 C96.84447191 69.56657226 96.95329811 71.31225008 97.06332588 73.05785179 C97.65213235 82.42745406 98.08729803 91.71931881 97.95874023 101.11352539 C91.68874023 101.11352539 85.41874023 101.11352539 78.95874023 101.11352539 C77.27209921 85.5723331 76.36983236 70.05746523 75.65649414 54.44726562 C75.59760262 53.19688004 75.59760262 53.19688004 75.53752136 51.92123413 C75.4637461 50.34856733 75.39300242 48.77575418 75.32588196 47.20278931 C75.13289108 43.10388192 74.72549733 39.14526061 73.95874023 35.11352539 C73.61168282 36.01435349 73.61168282 36.01435349 73.25761414 36.93338013 C70.84393187 43.19663309 68.42609304 49.45826992 66.00585938 55.71899414 C65.1037549 58.05419583 64.20270284 60.38980436 63.30273438 62.72583008 C62.00725873 66.08791484 60.70797694 69.44850732 59.40795898 72.80883789 C59.00784103 73.84968536 58.60772308 74.89053284 58.19548035 75.96292114 C57.81531265 76.9434848 57.43514496 77.92404846 57.04345703 78.93432617 C56.71258591 79.79148224 56.38171478 80.64863831 56.04081726 81.5317688 C54.81634917 84.45326005 53.3753865 87.28023286 51.95874023 90.11352539 C47.00874023 90.11352539 42.05874023 90.11352539 36.95874023 90.11352539 C29.6254069 71.78019206 22.29207357 53.44685872 14.95874023 35.11352539 C14.04099434 38.30231048 13.75006489 41.30270048 13.58569336 44.61303711 C13.52893433 45.71453094 13.47217529 46.81602478 13.41369629 47.95089722 C13.35637329 49.13636139 13.29905029 50.32182556 13.23999023 51.54321289 C13.14578796 53.37784592 13.14578796 53.37784592 13.04968262 55.24954224 C12.84896306 59.16235729 12.65331552 63.07540029 12.45874023 66.98852539 C12.26399453 70.89449903 12.06804685 74.80038962 11.86779785 78.70608521 C11.74319168 81.13664495 11.62173251 83.56736857 11.50378418 85.9982605 C11.44702515 87.10605865 11.39026611 88.21385681 11.33178711 89.35522461 C11.28372925 90.3246701 11.23567139 91.2941156 11.18615723 92.29293823 C10.9475865 95.25186195 10.44676287 98.18538955 9.95874023 101.11352539 C3.68874023 101.11352539 -2.58125977 101.11352539 -9.04125977 101.11352539 C-9.12472689 93.59452842 -8.80562226 86.17606383 -8.29125977 78.67602539 C-8.20690674 77.4164502 -8.12255371 76.156875 -8.03564453 74.85913086 C-7.88847038 72.66220718 -7.74060967 70.46533599 -7.59132385 68.26855469 C-7.15527089 61.84950175 -6.73401129 55.4295396 -6.31546021 49.00932312 C-6.00777132 44.29403564 -5.69623856 39.57900425 -5.38367653 34.86403751 C-5.1578373 31.45580844 -4.93348074 28.04749594 -4.71252441 24.63894653 C-4.46142331 20.76814201 -4.20280461 16.89785883 -3.94360352 13.02758789 C-3.86760422 11.84044693 -3.79160492 10.65330597 -3.71330261 9.43019104 C-3.63969009 8.3480986 -3.56607758 7.26600616 -3.49023438 6.15112305 C-3.42742783 5.19871735 -3.36462128 4.24631165 -3.2999115 3.26504517 C-2.9616342 0.45118313 -2.8377154 0.15782056 0 0 Z " fill="#212222" transform="translate(374.041259765625,461.886474609375)"/>
<path d="M0 0 C1.2375 0.02191406 2.475 0.04382813 3.75 0.06640625 C4.9875 0.06511719 6.225 0.06382812 7.5 0.0625 C10.75 0.62890625 10.75 0.62890625 12.625 2.2265625 C14.57624946 6.39329312 14.66422463 10.78544844 15.125 15.31640625 C15.76055631 18.68485472 16.35113242 20.23003867 18.75 22.62890625 C21.50900078 23.54857318 23.24234498 23.76273732 26.09375 23.8046875 C27.34478516 23.84045898 27.34478516 23.84045898 28.62109375 23.87695312 C30.37344992 23.91991579 32.12613234 23.95116998 33.87890625 23.97070312 C40.23265257 24.18183998 40.23265257 24.18183998 42.8203125 26.41796875 C44.37443587 30.1139092 44.13182179 32.61977741 43.75 36.62890625 C42.13775084 38.86046382 41.18689192 39.53005851 38.48828125 40.140625 C37.68777344 40.19863281 36.88726562 40.25664062 36.0625 40.31640625 C34.85013672 40.41501953 34.85013672 40.41501953 33.61328125 40.515625 C32.99839844 40.55300781 32.38351563 40.59039062 31.75 40.62890625 C31.75 43.26890625 31.75 45.90890625 31.75 48.62890625 C33.008125 48.71140625 34.26625 48.79390625 35.5625 48.87890625 C38.4197457 49.06626662 39.42907342 49.31085793 41.4921875 51.35546875 C42.97508654 54.03573969 43.12158848 55.70857692 43.0625 58.75390625 C43.05863281 59.62273437 43.05476563 60.4915625 43.05078125 61.38671875 C42.75 63.62890625 42.75 63.62890625 40.75 65.62890625 C39.35283992 65.57199545 37.95682599 65.48450065 36.5625 65.37890625 C34.05563872 65.4511422 34.05563872 65.4511422 31.75 66.62890625 C30.03787785 69.35341367 28.75831118 72.11252378 27.46801758 75.05419922 C22.17898873 86.75979181 10.97456272 92.4796381 -0.25 97.62890625 C-0.91 97.62890625 -1.57 97.62890625 -2.25 97.62890625 C3.15917599 104.32207855 8.6765639 110.90328258 14.29467773 117.42089844 C18.17513096 121.93250598 21.95229859 126.52053773 25.703125 131.140625 C28.63802184 134.70842898 31.67671669 138.18010922 34.75 141.62890625 C34.09 142.94890625 33.43 144.26890625 32.75 145.62890625 C29.68696422 145.71006618 26.62609185 145.76948034 23.5625 145.81640625 C22.69818359 145.84154297 21.83386719 145.86667969 20.94335938 145.89257812 C16.04221751 145.94891309 12.66301564 145.90987399 8.75 142.62890625 C6.609375 140.28125 6.609375 140.28125 4.5 137.56640625 C1.51836703 133.80974617 -1.51186046 130.1670832 -4.75 126.62890625 C-8.60406284 122.39477147 -12.24292114 118.02453893 -15.84375 113.57421875 C-19.02071582 109.68553007 -22.27103843 105.86143515 -25.53271484 102.04370117 C-26.77995709 100.57900158 -28.01543776 99.10430932 -29.25 97.62890625 C-29.84296875 96.94957031 -30.4359375 96.27023437 -31.046875 95.5703125 C-32.58180209 93.09349833 -32.65093443 91.39991782 -32.625 88.50390625 C-32.63273438 87.63507813 -32.64046875 86.76625 -32.6484375 85.87109375 C-32.51695312 85.13117188 -32.38546875 84.39125 -32.25 83.62890625 C-29.00789675 81.46750408 -27.47729525 81.48860329 -23.70141602 81.50512695 C-16.28868777 81.50101653 -10.39195658 80.43866791 -3.8125 76.94140625 C-2.86455566 76.45099854 -2.86455566 76.45099854 -1.89746094 75.95068359 C2.4284893 73.45328935 3.4096797 71.29708345 4.75 66.62890625 C3.7712793 66.63937988 2.79255859 66.64985352 1.78417969 66.66064453 C-1.85364105 66.69689718 -5.49144587 66.71982583 -9.12939453 66.73876953 C-10.70266405 66.74881512 -12.27591496 66.76245406 -13.84912109 66.77978516 C-16.11300252 66.80409721 -18.37663666 66.81540372 -20.640625 66.82421875 C-21.34181458 66.83454132 -22.04300415 66.84486389 -22.76544189 66.85549927 C-26.40849547 66.85633261 -29.21381699 66.7579712 -32.25 64.62890625 C-33.41343227 62.30204172 -33.44895988 60.78169212 -33.5 58.19140625 C-33.52578125 57.40894531 -33.5515625 56.62648438 -33.578125 55.8203125 C-33.16962728 53.09213127 -32.41727539 52.28474515 -30.25 50.62890625 C-26.69831767 49.44501214 -23.73920544 49.43374196 -19.9921875 49.34765625 C-18.93670212 49.32004211 -18.93670212 49.32004211 -17.8598938 49.29187012 C-14.85092267 49.21322385 -11.84173439 49.14524077 -8.83251953 49.07666016 C-6.63562513 49.0250632 -4.43893058 48.96778525 -2.2421875 48.91015625 C-0.92589355 48.87986328 0.39040039 48.84957031 1.74658203 48.81835938 C4.63057503 48.96872753 4.63057503 48.96872753 5.75 47.62890625 C5.79092937 45.29593192 5.79241723 42.961854 5.75 40.62890625 C4.13774536 40.60703247 4.13774536 40.60703247 2.49291992 40.5847168 C-1.49374717 40.52675735 -5.47984801 40.44952496 -9.46606445 40.36645508 C-11.19155693 40.33319453 -12.91715849 40.30516606 -14.64282227 40.2824707 C-17.12303166 40.24894472 -19.6022403 40.19663219 -22.08203125 40.140625 C-22.85400345 40.13423508 -23.62597565 40.12784515 -24.42134094 40.1212616 C-29.75868364 39.97463397 -29.75868364 39.97463397 -32.2355957 38.23168945 C-33.58081233 36.10621481 -33.65003978 34.63288471 -33.625 32.12890625 C-33.63273438 31.35546875 -33.64046875 30.58203125 -33.6484375 29.78515625 C-33.149483 27.0849319 -32.37098262 26.33258254 -30.25 24.62890625 C-28.33642578 24.26000977 -28.33642578 24.26000977 -26.1953125 24.2578125 C-25.41542969 24.24041016 -24.63554687 24.22300781 -23.83203125 24.20507812 C-22.20183983 24.19600711 -20.57162238 24.19076148 -18.94140625 24.18945312 C-15.07820255 24.09716902 -12.68836798 23.8605182 -9.21875 22.02734375 C-6.59500428 18.83095512 -6.65123211 16.78798748 -6.625 12.69140625 C-6.50272121 1.25833908 -6.50272121 1.25833908 0 0 Z " fill="#FCFEFD" transform="translate(209.25,434.37109375)"/>
<path d="M0 0 C0.98677734 0.00161133 1.97355469 0.00322266 2.99023438 0.00488281 C10.08670021 0.12448617 16.06908155 0.90915169 22.375 4.375 C23.4475 4.9525 24.52 5.53 25.625 6.125 C30.51446065 10.1254678 35.87307386 15.03353407 37.375 21.375 C37.39733111 23.37487533 37.39965566 25.37515198 37.375 27.375 C35.12613762 27.88009208 32.87586131 28.37889179 30.625 28.875 C29.37203125 29.1534375 28.1190625 29.431875 26.828125 29.71875 C23.375 30.375 23.375 30.375 19.375 30.375 C19.02888672 29.57835937 19.02888672 29.57835937 18.67578125 28.765625 C16.56890541 24.20211528 14.76171664 21.1166979 10.375 18.375 C4.42394041 16.47219339 -2.28556141 16.53948622 -8.125 18.625 C-10.7218758 20.44281306 -12.20740352 21.53980704 -13.625 24.375 C-14.21909389 28.4593955 -14.14675734 30.54405313 -11.9375 34.0625 C-6.3506255 38.81366474 2.16014376 39.849217 9.1328125 41.5234375 C21.1085947 44.43656092 31.23646909 47.53847602 38.375 58.375 C42.12232412 65.95979005 41.35314549 75.42886615 38.8125 83.3125 C35.38933534 91.43506144 29.78937342 95.78036 21.890625 99.375 C11.17706462 103.63380661 -2.48178997 104.30645155 -13.39453125 100.33984375 C-14.13058594 100.02144531 -14.86664062 99.70304688 -15.625 99.375 C-16.39199219 99.04628906 -17.15898438 98.71757813 -17.94921875 98.37890625 C-24.77032219 95.03204904 -30.575437 89.73858574 -33.8359375 82.796875 C-34.78870568 79.87253704 -34.83339748 77.43149639 -34.625 74.375 C-32.48031351 72.23031351 -28.04055106 72.6354212 -25.0625 72.3125 C-23.85303711 72.17618164 -23.85303711 72.17618164 -22.61914062 72.03710938 C-20.62152623 71.81252551 -18.6233144 71.59326764 -16.625 71.375 C-16.38007812 71.96667969 -16.13515625 72.55835938 -15.8828125 73.16796875 C-13.09059396 79.07014104 -10.26647735 81.99046966 -4.23828125 84.5625 C2.71882267 86.72554576 7.93277608 85.58184667 14.4296875 82.54296875 C16.46851167 81.31885545 17.88032592 80.22533448 19.375 78.375 C20.69806697 72.94186048 20.69806697 72.94186048 19.1875 67.7734375 C13.59561473 60.37383069 0.61496734 59.07115008 -7.97412109 57.33789062 C-17.29693009 55.34202166 -24.96376268 51.52354001 -30.8125 43.80859375 C-34.86929636 37.28673016 -34.42064115 29.7824191 -33.625 22.375 C-32.71117719 19.0414117 -31.45413936 16.29778563 -29.625 13.375 C-29.08875 12.488125 -28.5525 11.60125 -28 10.6875 C-24.36196725 7.14520495 -20.10517402 4.72898974 -15.625 2.375 C-14.91472656 1.99472656 -14.20445312 1.61445313 -13.47265625 1.22265625 C-9.02021624 -0.10269283 -4.62179069 -0.00772875 0 0 Z " fill="#202121" transform="translate(683.625,461.625)"/>
<path d="M0 0 C1.18903931 0.01740234 1.18903931 0.01740234 2.40209961 0.03515625 C12.01989249 0.3044901 18.01487922 2.40281769 25.11328125 9.1171875 C30.03842289 14.82206098 32.19522475 21.8777954 32.17602539 29.32714844 C32.17591209 30.79822052 32.17591209 30.79822052 32.17579651 32.29901123 C32.17063522 33.35018127 32.16547394 34.40135132 32.16015625 35.484375 C32.1587413 36.56632141 32.15732635 37.64826782 32.15586853 38.76300049 C32.15027318 42.2170285 32.1377215 45.67099159 32.125 49.125 C32.1199844 51.46744698 32.1154216 53.80989498 32.11132812 56.15234375 C32.10030527 61.89325417 32.08304379 67.63411608 32.0625 73.375 C25.7925 73.375 19.5225 73.375 13.0625 73.375 C13.0625 71.395 13.0625 69.415 13.0625 67.375 C12.31806641 67.88160156 12.31806641 67.88160156 11.55859375 68.3984375 C2.7206877 74.20093369 -5.42510333 75.33509172 -15.9375 74.375 C-22.19021044 72.72539077 -26.44564195 68.7052506 -29.9375 63.375 C-33.27532935 57.2031646 -34.16962573 50.80478537 -32.28125 44.015625 C-29.39217785 36.59369826 -24.62768574 32.44848352 -17.5625 29 C-8.36925402 25.59666316 2.55789803 26.84280335 12.0625 28.375 C12.25574053 24.22032871 12.15492143 21.0367375 10.0625 17.375 C5.32217815 15.69191943 0.00405894 15.83325872 -4.9375 16.375 C-8.55441275 18.47280939 -9.62041409 19.42374226 -10.9375 23.375 C-17.2075 23.375 -23.4775 23.375 -29.9375 23.375 C-28.76027727 15.13444088 -26.09160608 11.06302692 -20.0625 5.5625 C-13.62312023 1.05493416 -7.67817998 -0.14402213 0 0 Z " fill="#202122" transform="translate(764.9375,489.625)"/>
<path d="M0 0 C8.6411858 5.87374721 13.47904664 13.91618656 16 24 C16 28.62 16 33.24 16 38 C-0.5 38 -17 38 -34 38 C-30.47057131 47.90636531 -30.47057131 47.90636531 -23 53 C-16.9327284 53.64256237 -12.34035276 52.94264336 -7 50 C-6.34 49.01 -5.68 48.02 -5 47 C-3.1875 46.671875 -3.1875 46.671875 -1 46.75 C-0.20722656 46.77578125 0.58554687 46.8015625 1.40234375 46.828125 C5.61475366 47.10684084 9.80718826 47.50981742 14 48 C13.30521231 55.34337145 9.34434393 59.22115297 4 64 C-6.01705037 70.34172973 -16.44587617 71.31601905 -27.99609375 69.5390625 C-36.71539633 67.22661096 -44.03799861 61.50926026 -49 54 C-54.98853618 41.7933352 -55.65603866 29.88589249 -51.26171875 16.98046875 C-49.44423629 12.68715878 -47.20095369 9.3706428 -44 6 C-43.47535156 5.44699219 -42.95070313 4.89398438 -42.41015625 4.32421875 C-31.60372375 -5.92282195 -12.75654642 -7.96153252 0 0 Z " fill="#202122" transform="translate(908,494)"/>
<path d="M0 0 C7.23384018 4.57293421 11.05234386 11.35554825 13.375 19.4375 C13.86957368 23.56930535 13.84465221 27.63265555 13.765625 31.7890625 C13.75996521 32.92910736 13.75430542 34.06915222 13.74847412 35.2437439 C13.72625659 38.85044067 13.67608613 42.4561084 13.625 46.0625 C13.60491617 48.52212097 13.58666872 50.98175767 13.5703125 53.44140625 C13.52643952 59.44049482 13.45751274 65.43882352 13.375 71.4375 C7.105 71.4375 0.835 71.4375 -5.625 71.4375 C-5.68107422 66.81234375 -5.68107422 66.81234375 -5.73828125 62.09375 C-5.78456832 59.08847187 -5.83577588 56.08331475 -5.88745117 53.078125 C-5.9205876 50.9987735 -5.94865424 48.91933448 -5.97143555 46.83984375 C-6.00518951 43.84076854 -6.0575156 40.84248713 -6.11328125 37.84375 C-6.11967117 36.92259399 -6.1260611 36.00143799 -6.13264465 35.05236816 C-6.2641654 29.20322489 -7.16297921 24.76832001 -9.625 19.4375 C-12.95274269 16.39499239 -16.14150612 15.90407383 -20.6328125 16.08203125 C-24.87009853 16.83809601 -27.67537113 19.35688783 -30.4375 22.5 C-32.34823961 25.61752252 -32.75863601 28.24306659 -32.83032227 31.81713867 C-32.85026749 32.69782516 -32.87021271 33.57851166 -32.89076233 34.48588562 C-32.91583107 35.90632927 -32.91583107 35.90632927 -32.94140625 37.35546875 C-32.96218735 38.32784988 -32.98296844 39.30023102 -33.00437927 40.30207825 C-33.06978748 43.40964665 -33.12871929 46.51729985 -33.1875 49.625 C-33.23069351 51.73112858 -33.27430807 53.83724856 -33.31835938 55.94335938 C-33.42545999 61.10798591 -33.52675219 66.27269778 -33.625 71.4375 C-39.895 71.4375 -46.165 71.4375 -52.625 71.4375 C-52.625 47.6775 -52.625 23.9175 -52.625 -0.5625 C-46.685 -0.5625 -40.745 -0.5625 -34.625 -0.5625 C-34.295 1.4175 -33.965 3.3975 -33.625 5.4375 C-32.59439453 4.80521484 -32.59439453 4.80521484 -31.54296875 4.16015625 C-30.64191406 3.61230469 -29.74085938 3.06445312 -28.8125 2.5 C-27.91917969 1.95472656 -27.02585937 1.40945313 -26.10546875 0.84765625 C-19.26998751 -3.03834175 -7.1907421 -3.27998762 0 0 Z " fill="#222323" transform="translate(571.625,491.5625)"/>
<path d="M0 0 C0.82242188 0.01353516 1.64484375 0.02707031 2.4921875 0.04101562 C4.49508221 0.07594984 6.49763356 0.12973943 8.5 0.1875 C8.5 5.7975 8.5 11.4075 8.5 17.1875 C4.0078125 17.48046875 4.0078125 17.48046875 -0.484375 17.7734375 C-3.37458409 18.17027968 -5.12309827 18.5279515 -7.5 20.1875 C-9.37748912 23.02190294 -9.82920857 25.58519712 -10.125 28.9375 C-10.24875 30.34 -10.3725 31.7425 -10.5 33.1875 C-4.89 33.1875 0.72 33.1875 6.5 33.1875 C6.5 38.4675 6.5 43.7475 6.5 49.1875 C0.89 49.1875 -4.72 49.1875 -10.5 49.1875 C-10.5 67.6675 -10.5 86.1475 -10.5 105.1875 C-16.77 105.1875 -23.04 105.1875 -29.5 105.1875 C-29.5 86.7075 -29.5 68.2275 -29.5 49.1875 C-33.46 49.1875 -37.42 49.1875 -41.5 49.1875 C-41.5 43.9075 -41.5 38.6275 -41.5 33.1875 C-37.54 33.1875 -33.58 33.1875 -29.5 33.1875 C-29.54640625 32.28128906 -29.5928125 31.37507813 -29.640625 30.44140625 C-29.90037034 21.67500104 -29.70685901 14.94348441 -23.734375 8.19140625 C-16.61347021 1.44897475 -9.62370864 -0.30563896 0 0 Z " fill="#212223" transform="translate(845.5,457.8125)"/>
<path d="M0 0 C2.949375 -0.020625 5.89875 -0.04125 8.9375 -0.0625 C9.86812256 -0.071604 10.79874512 -0.08070801 11.75756836 -0.09008789 C12.48596924 -0.09258545 13.21437012 -0.09508301 13.96484375 -0.09765625 C14.7137085 -0.10289307 15.46257324 -0.10812988 16.23413086 -0.11352539 C18 0 18 0 19 1 C19.07330331 3.86469325 19.09217831 6.69893674 19.0625 9.5625 C19.041875 12.346875 19.02125 15.13125 19 18 C24.61 18 30.22 18 36 18 C36 23.28 36 28.56 36 34 C30.39 34 24.78 34 19 34 C19.09681668 39.23319623 19.19946906 44.46557765 19.31738281 49.69824219 C19.35571565 51.47909473 19.39056089 53.26002584 19.421875 55.04101562 C19.46743271 57.59794234 19.52544107 60.1543261 19.5859375 62.7109375 C19.59748871 63.50994476 19.60903992 64.30895203 19.62094116 65.13217163 C19.57258944 69.53457212 19.57258944 69.53457212 22 73 C26.65667144 73.59185512 31.30932066 73.74414476 36 74 C36 79.28 36 84.56 36 90 C27.97746723 92.67417759 17.70365553 91.90847481 10.08984375 88.3359375 C4.99586119 85.07959725 1.8116567 80.73142302 0 75 C-0.27062264 71.84558743 -0.23280915 68.70693568 -0.1953125 65.54296875 C-0.1924826 64.64000565 -0.18965271 63.73704254 -0.18673706 62.80671692 C-0.17557607 59.93350766 -0.15047897 57.06061445 -0.125 54.1875 C-0.11496493 52.23503056 -0.10584 50.28255621 -0.09765625 48.33007812 C-0.07565008 43.55326434 -0.04114831 38.77668569 0 34 C-3.96 34 -7.92 34 -12 34 C-12 28.72 -12 23.44 -12 18 C-8.04 18 -4.08 18 0 18 C0 12.06 0 6.12 0 0 Z " fill="#1F2021" transform="translate(605,473)"/>
<path d="M0 0 C6.27 0 12.54 0 19 0 C19 23.76 19 47.52 19 72 C12.73 72 6.46 72 0 72 C0 48.24 0 24.48 0 0 Z " fill="#1D1F1F" transform="translate(485,491)"/>
<path d="M0 0 C3.07469523 1.70251719 5.40613254 3.81226508 7 7 C7.53118173 10.79415519 7.85089348 14.46331178 5.953125 17.890625 C4.17889137 20.0405787 2.50728754 21.74635623 0 23 C-5.3401391 23.35017306 -8.66462219 23.46830225 -13 20 C-15.81689603 17.47450701 -16.2730238 15.28115719 -16.5 11.625 C-16.3494154 6.5553185 -14.61328571 4.44122449 -11 1 C-7.51556578 -0.74221711 -3.80112955 -0.58675154 0 0 Z " fill="#1E1E1F" transform="translate(499,462)"/>
<path d="M0 0 C1.21042969 0.00773438 1.21042969 0.00773438 2.4453125 0.015625 C6.14433058 0.06445692 9.42158021 0.24683625 13 1.25 C13.41017747 5.43381014 13.5160068 7.54049065 11 11 C5.4551198 15.15866015 0.00391752 17.04289632 -7 16.25 C-10.5386994 14.59860695 -11.81070153 13.53394771 -14 10.25 C-13.78187135 4.14239766 -13.78187135 4.14239766 -11.5078125 1.546875 C-7.72494542 -0.40937402 -4.1913314 -0.10712668 0 0 Z " fill="#F7F7F7" transform="translate(765,531.75)"/>
<path d="M0 0 C5.66426512 2.94299896 6.95825714 5.87477143 9 12 C-0.9 12 -10.8 12 -21 12 C-15.89820964 1.79641928 -11.44063403 -2.18864303 0 0 Z " fill="#FAFAFA" transform="translate(895,506)"/>
<path d="M0 0 C0.33 0 0.66 0 1 0 C1 3.3 1 6.6 1 10 C6.61 10 12.22 10 18 10 C18 15.28 18 20.56 18 26 C12.39 26 6.78 26 1 26 C1 44.48 1 62.96 1 82 C-5.27 82 -11.54 82 -18 82 C-18 63.52 -18 45.04 -18 26 C-17.67 26 -17.34 26 -17 26 C-17 43.82 -17 61.64 -17 80 C-11.72 80 -6.44 80 -1 80 C-1.00523682 78.3694165 -1.01047363 76.73883301 -1.01586914 75.05883789 C-1.03391085 69.03377833 -1.04542896 63.00872117 -1.05493164 56.98364258 C-1.05997377 54.37133381 -1.06680725 51.75902789 -1.07543945 49.14672852 C-1.08751036 45.40119732 -1.09322935 41.65570328 -1.09765625 37.91015625 C-1.10281754 36.73413345 -1.10797882 35.55811066 -1.11329651 34.34645081 C-1.11340981 32.72488319 -1.11340981 32.72488319 -1.11352539 31.07055664 C-1.115746 30.11347305 -1.11796661 29.15638947 -1.12025452 28.17030334 C-1 26 -1 26 0 25 C2.86267567 24.92674832 5.700719 24.90761795 8.5625 24.9375 C9.36880859 24.94201172 10.17511719 24.94652344 11.00585938 24.95117188 C13.00393756 24.96299482 15.00197783 24.98093086 17 25 C16.67 20.71 16.34 16.42 16 12 C14.85660156 11.93941406 13.71320312 11.87882812 12.53515625 11.81640625 C11.04425695 11.73201572 9.55337225 11.64736698 8.0625 11.5625 C7.30775391 11.52318359 6.55300781 11.48386719 5.77539062 11.44335938 C0.11328125 11.11328125 0.11328125 11.11328125 -1 10 C-1.13568319 6.33655389 -1.16461426 3.49384279 0 0 Z " fill="#0B0B0C" transform="translate(834,481)"/>
<path d="M0 0 C5.94 0 11.88 0 18 0 C18 1.98 18 3.96 18 6 C17.67 6 17.34 6 17 6 C17 4.35 17 2.7 17 1 C11.72 1 6.44 1 1 1 C1 23.77 1 46.54 1 70 C6.28 70 11.56 70 17 70 C16.94779297 66.05933594 16.94779297 66.05933594 16.89453125 62.0390625 C16.87106252 59.46404097 16.85288774 56.88903186 16.83520508 54.31396484 C16.82021907 52.53917004 16.79982318 50.76441163 16.77368164 48.98974609 C16.48169361 28.64218836 16.48169361 28.64218836 20 22 C20.66 21.67 21.32 21.34 22 21 C21.51781006 22.41357788 21.51781006 22.41357788 21.02587891 23.85571289 C19.66440797 28.64516511 19.64767795 33.35748844 19.5859375 38.30859375 C19.56657135 39.27531509 19.5472052 40.24203644 19.5272522 41.23805237 C19.46780809 44.30444713 19.42121231 47.37088016 19.375 50.4375 C19.33678783 52.52540636 19.29773424 54.6132975 19.2578125 56.70117188 C19.16056288 61.80069891 19.08071514 66.90007761 19 72 C12.73 72 6.46 72 0 72 C0 48.24 0 24.48 0 0 Z " fill="#060607" transform="translate(519,491)"/>
<path d="M0 0 C0.33 0 0.66 0 1 0 C1 14.19 1 28.38 1 43 C6.28 43 11.56 43 17 43 C17 30.13 17 17.26 17 4 C17.66 3.67 18.32 3.34 19 3 C19 16.86 19 30.72 19 45 C12.73 45 6.46 45 0 45 C0 30.15 0 15.3 0 0 Z " fill="#09090A" transform="translate(566,518)"/>
<path d="M0 0 C5.10863896 -0.0246501 10.21724359 -0.04283607 15.32592773 -0.05493164 C17.06519168 -0.05997204 18.80445136 -0.0668043 20.54370117 -0.07543945 C23.03825937 -0.08751792 25.53276173 -0.09323108 28.02734375 -0.09765625 C28.80963852 -0.10281754 29.59193329 -0.10797882 30.39793396 -0.11329651 C32.26567114 -0.11349226 34.13329204 -0.06199694 36 0 C37 1 37 1 37.1875 4.4375 C37 8 37 8 35 10 C32.41896694 10.17502995 29.94691837 10.23162279 27.3671875 10.1953125 C26.23943405 10.19106766 26.23943405 10.19106766 25.08889771 10.18673706 C22.68410422 10.17552874 20.27968119 10.15042352 17.875 10.125 C16.24609912 10.11497102 14.61719242 10.10584503 12.98828125 10.09765625 C8.99204444 10.07558735 4.99608506 10.04105351 1 10 C1 9.67 1 9.34 1 9 C11.89 8.67 22.78 8.34 34 8 C34.33 6.02 34.66 4.04 35 2 C34.08186523 2.01047363 33.16373047 2.02094727 32.21777344 2.03173828 C28.80352254 2.06587215 25.38945362 2.0909241 21.97509766 2.10986328 C20.49883153 2.11990591 19.02258521 2.13354265 17.54638672 2.15087891 C15.42149966 2.17520421 13.29687615 2.1865004 11.171875 2.1953125 C9.8940918 2.20578613 8.61630859 2.21625977 7.29980469 2.22705078 C4.22530701 2.01550278 2.56261648 1.63126908 0 0 Z " fill="#14BA6C" transform="translate(179,474)"/>
<path d="M0 0 C0.87454834 0.00523682 1.74909668 0.01047363 2.65014648 0.01586914 C3.59438477 0.0190918 4.53862305 0.02231445 5.51147461 0.02563477 C6.50469727 0.03401367 7.49791992 0.04239258 8.52124023 0.05102539 C9.51833008 0.05553711 10.51541992 0.06004883 11.54272461 0.06469727 C14.01478872 0.07652532 16.48673541 0.0930069 18.95874023 0.11352539 C19.28874023 1.76352539 19.61874023 3.41352539 19.95874023 5.11352539 C19.62874023 4.45352539 19.29874023 3.79352539 18.95874023 3.11352539 C12.68874023 3.11352539 6.41874023 3.11352539 -0.04125977 3.11352539 C-0.96277628 6.79959144 -1.33934956 10.08623669 -1.60375977 13.86352539 C-1.68754883 15.03399414 -1.77133789 16.20446289 -1.85766602 17.41040039 C-1.91825195 18.30243164 -1.97883789 19.19446289 -2.04125977 20.11352539 C-2.37125977 20.11352539 -2.70125977 20.11352539 -3.04125977 20.11352539 C-3.07014491 16.96771116 -3.088019 13.8219307 -3.10375977 10.67602539 C-3.11213867 9.77819336 -3.12051758 8.88036133 -3.12915039 7.95532227 C-3.13237305 7.10131836 -3.1355957 6.24731445 -3.13891602 5.36743164 C-3.14677124 4.18129272 -3.14677124 4.18129272 -3.15478516 2.97119141 C-2.99295568 0.32310438 -2.6437155 0.14703118 0 0 Z " fill="#2A2A2B" transform="translate(374.041259765625,461.886474609375)"/>
<path d="M0 0 C0.33 0 0.66 0 1 0 C1 5.61 1 11.22 1 17 C6.61 17 12.22 17 18 17 C18 22.28 18 27.56 18 33 C17.34 32.67 16.68 32.34 16 32 C13.44842345 31.9283265 10.92527029 31.90691558 8.375 31.9375 C7.31539062 31.94426758 7.31539062 31.94426758 6.234375 31.95117188 C4.48954725 31.96296125 2.744763 31.98089676 1 32 C1 31.67 1 31.34 1 31 C5.62 31 10.24 31 15 31 C15 26.71 15 22.42 15 18 C10.05 18 5.1 18 0 18 C0 12.06 0 6.12 0 0 Z " fill="#303131" transform="translate(623,474)"/>
<path d="M0 0 C0.99 0 1.98 0 3 0 C3 2.31 3 4.62 3 7 C7.62 7 12.24 7 17 7 C17 7.33 17 7.66 17 8 C11.35600642 10.44064587 6.02248522 10.19289099 0 10 C0 6.7 0 3.4 0 0 Z " fill="#292929" transform="translate(365,553)"/>
<path d="M0 0 C0.66 0 1.32 0 2 0 C2 4.95 2 9.9 2 15 C1.01 15.495 1.01 15.495 0 16 C-1.08489672 12.74530985 -1.13323992 10.29456791 -1.125 6.875 C-1.12757813 5.79992187 -1.13015625 4.72484375 -1.1328125 3.6171875 C-1 1 -1 1 0 0 Z " fill="#2D2D2D" transform="translate(855,520)"/>
<path d="M0 0 C0.99 0.495 0.99 0.495 2 1 C2 1.99 2 2.98 2 4 C6.95 4 11.9 4 17 4 C17 4.66 17 5.32 17 6 C11.39 6 5.78 6 0 6 C0 4.02 0 2.04 0 0 Z " fill="#191919" transform="translate(778,557)"/>
<path d="M0 0 C5.61 0 11.22 0 17 0 C17 0.33 17 0.66 17 1 C5.47835991 3.29612756 5.47835991 3.29612756 0 3 C0 2.01 0 1.02 0 0 Z " fill="#292A2A" transform="translate(678,561)"/>
<path d="M0 0 C1.90294128 1.60168408 2.90495491 2.48389495 3.36328125 4.97265625 C3.22222222 10.77777778 3.22222222 10.77777778 1 13 C-0.32229189 10.35541621 -0.09677194 8.32238699 -0.0625 5.375 C-0.05347656 4.37210937 -0.04445313 3.36921875 -0.03515625 2.3359375 C-0.02355469 1.56507813 -0.01195312 0.79421875 0 0 Z " fill="#2F2F30" transform="translate(465,484)"/>
<path d="M0 0 C1.51953125 1.20703125 1.51953125 1.20703125 3 3 C3.07421875 5.26171875 3.07421875 5.26171875 2.6875 7.6875 C2.50767578 8.89986328 2.50767578 8.89986328 2.32421875 10.13671875 C2.21722656 10.75160156 2.11023438 11.36648438 2 12 C-0.40201504 7.80120206 -0.15864149 4.75924459 0 0 Z " fill="#2B2C2C" transform="translate(467,517)"/>
<path d="M0 0 C-0.66 1.32 -1.32 2.64 -2 4 C-2 3.34 -2 2.68 -2 2 C-4.97 1.67 -7.94 1.34 -11 1 C-11 0.67 -11 0.34 -11 0 C-9.54263913 -0.19491452 -8.08405407 -0.38069358 -6.625 -0.5625 C-5.81289063 -0.66691406 -5.00078125 -0.77132812 -4.1640625 -0.87890625 C-2 -1 -2 -1 0 0 Z " fill="#282829" transform="translate(668,534)"/>
</svg>
